<mxfile host="Electron" modified="2023-06-03T19:50:33.758Z" agent="Mozilla/5.0 (X11; Linux x86_64) AppleWebKit/537.36 (KHTML, like Gecko) draw.io/21.1.2 Chrome/106.0.5249.199 Electron/21.4.3 Safari/537.36" etag="rj0BLYsxebxzWkZFKWJp" version="21.1.2" type="device">
  <diagram id="fX2Uz3ByAGqkxDqFuLyP" name="Page-1">
    <mxGraphModel dx="1432" dy="876" grid="1" gridSize="10" guides="1" tooltips="1" connect="1" arrows="1" fold="1" page="1" pageScale="1" pageWidth="413" pageHeight="583" math="0" shadow="0">
      <root>
        <mxCell id="0" />
        <mxCell id="1" parent="0" />
        <mxCell id="C2pQTI0YYl-JuVe02FA8-1" value="" style="group;fontFamily=Montserrat;fontSource=https%3A%2F%2Ffonts.googleapis.com%2Fcss%3Ffamily%3DMontserrat;" parent="1" vertex="1" connectable="0">
          <mxGeometry x="1410" y="696" width="90" height="299" as="geometry" />
        </mxCell>
        <mxCell id="gAn3sIhADLl_WlFW2sv6-131" value="" style="edgeStyle=elbowEdgeStyle;elbow=horizontal;endArrow=none;html=1;strokeWidth=5;fontFamily=Montserrat;fontSize=13;fontColor=#FFFFFF;endFill=0;strokeColor=#40535D;fontSource=https%3A%2F%2Ffonts.googleapis.com%2Fcss%3Ffamily%3DMontserrat;" parent="C2pQTI0YYl-JuVe02FA8-1" edge="1">
          <mxGeometry width="50" height="50" relative="1" as="geometry">
            <mxPoint x="90" y="148.77073170731705" as="sourcePoint" />
            <mxPoint y="299" as="targetPoint" />
          </mxGeometry>
        </mxCell>
        <mxCell id="gAn3sIhADLl_WlFW2sv6-132" value="" style="edgeStyle=elbowEdgeStyle;elbow=horizontal;endArrow=none;html=1;strokeWidth=5;fontFamily=Montserrat;fontSize=13;fontColor=#FFFFFF;endFill=0;strokeColor=#40535D;fontSource=https%3A%2F%2Ffonts.googleapis.com%2Fcss%3Ffamily%3DMontserrat;" parent="C2pQTI0YYl-JuVe02FA8-1" edge="1">
          <mxGeometry width="50" height="50" relative="1" as="geometry">
            <mxPoint x="90" y="148.77073170731705" as="sourcePoint" />
            <mxPoint as="targetPoint" />
          </mxGeometry>
        </mxCell>
        <mxCell id="gAn3sIhADLl_WlFW2sv6-127" value="" style="endArrow=none;html=1;strokeWidth=5;endFill=0;dashed=1;strokeColor=#04aadaff;fontFamily=Montserrat;fontSource=https%3A%2F%2Ffonts.googleapis.com%2Fcss%3Ffamily%3DMontserrat;" parent="1" edge="1">
          <mxGeometry width="50" height="50" relative="1" as="geometry">
            <mxPoint x="1160" y="600" as="sourcePoint" />
            <mxPoint x="1160" y="1180" as="targetPoint" />
          </mxGeometry>
        </mxCell>
        <mxCell id="gAn3sIhADLl_WlFW2sv6-75" value="" style="endArrow=none;html=1;strokeWidth=5;endFill=0;exitX=1;exitY=0.5;exitDx=0;exitDy=0;entryX=0;entryY=0.608;entryDx=0;entryDy=0;entryPerimeter=0;strokeColor=#40535D;fontFamily=Montserrat;fontSource=https%3A%2F%2Ffonts.googleapis.com%2Fcss%3Ffamily%3DMontserrat;" parent="1" target="gAn3sIhADLl_WlFW2sv6-66" edge="1">
          <mxGeometry width="50" height="50" relative="1" as="geometry">
            <mxPoint x="1040" y="726.5" as="sourcePoint" />
            <mxPoint x="1164" y="726.5" as="targetPoint" />
          </mxGeometry>
        </mxCell>
        <mxCell id="gAn3sIhADLl_WlFW2sv6-110" value="" style="endArrow=none;html=1;strokeWidth=5;endFill=0;exitX=0.997;exitY=0.467;exitDx=0;exitDy=0;entryX=0;entryY=0.75;entryDx=0;entryDy=0;exitPerimeter=0;strokeColor=#40535D;fontFamily=Montserrat;fontSource=https%3A%2F%2Ffonts.googleapis.com%2Fcss%3Ffamily%3DMontserrat;" parent="1" source="gAn3sIhADLl_WlFW2sv6-63" target="gAn3sIhADLl_WlFW2sv6-69" edge="1">
          <mxGeometry width="50" height="50" relative="1" as="geometry">
            <mxPoint x="1040" y="719.5" as="sourcePoint" />
            <mxPoint x="1280" y="719.48" as="targetPoint" />
          </mxGeometry>
        </mxCell>
        <mxCell id="gAn3sIhADLl_WlFW2sv6-111" value="" style="endArrow=none;html=1;strokeWidth=5;endFill=0;exitX=0.994;exitY=0.833;exitDx=0;exitDy=0;entryX=-0.008;entryY=0.444;entryDx=0;entryDy=0;entryPerimeter=0;exitPerimeter=0;strokeColor=#40535D;fontFamily=Montserrat;fontSource=https%3A%2F%2Ffonts.googleapis.com%2Fcss%3Ffamily%3DMontserrat;" parent="1" source="gAn3sIhADLl_WlFW2sv6-63" target="gAn3sIhADLl_WlFW2sv6-101" edge="1">
          <mxGeometry width="50" height="50" relative="1" as="geometry">
            <mxPoint x="1040" y="734" as="sourcePoint" />
            <mxPoint x="1280" y="733.98" as="targetPoint" />
          </mxGeometry>
        </mxCell>
        <mxCell id="gAn3sIhADLl_WlFW2sv6-112" value="" style="endArrow=none;html=1;strokeWidth=5;endFill=0;exitX=0.997;exitY=0.839;exitDx=0;exitDy=0;entryX=0;entryY=0.5;entryDx=0;entryDy=0;exitPerimeter=0;strokeColor=#40535D;fontFamily=Montserrat;fontSource=https%3A%2F%2Ffonts.googleapis.com%2Fcss%3Ffamily%3DMontserrat;" parent="1" source="gAn3sIhADLl_WlFW2sv6-63" target="gAn3sIhADLl_WlFW2sv6-104" edge="1">
          <mxGeometry width="50" height="50" relative="1" as="geometry">
            <mxPoint x="1040" y="744" as="sourcePoint" />
            <mxPoint x="1280" y="743.98" as="targetPoint" />
          </mxGeometry>
        </mxCell>
        <mxCell id="gAn3sIhADLl_WlFW2sv6-113" value="" style="endArrow=none;html=1;strokeWidth=5;endFill=0;exitX=0.989;exitY=0.861;exitDx=0;exitDy=0;exitPerimeter=0;strokeColor=#40535D;fontFamily=Montserrat;fontSource=https%3A%2F%2Ffonts.googleapis.com%2Fcss%3Ffamily%3DMontserrat;" parent="1" source="gAn3sIhADLl_WlFW2sv6-63" edge="1">
          <mxGeometry width="50" height="50" relative="1" as="geometry">
            <mxPoint x="1039" y="754" as="sourcePoint" />
            <mxPoint x="1279" y="1050" as="targetPoint" />
          </mxGeometry>
        </mxCell>
        <mxCell id="gAn3sIhADLl_WlFW2sv6-114" value="" style="endArrow=none;html=1;strokeWidth=5;endFill=0;entryX=0;entryY=0.5;entryDx=0;entryDy=0;exitX=0.995;exitY=0.55;exitDx=0;exitDy=0;exitPerimeter=0;strokeColor=#40535D;fontFamily=Montserrat;fontSource=https%3A%2F%2Ffonts.googleapis.com%2Fcss%3Ffamily%3DMontserrat;" parent="1" source="gAn3sIhADLl_WlFW2sv6-63" target="gAn3sIhADLl_WlFW2sv6-102" edge="1">
          <mxGeometry width="50" height="50" relative="1" as="geometry">
            <mxPoint x="1044" y="734" as="sourcePoint" />
            <mxPoint x="1284" y="733.48" as="targetPoint" />
          </mxGeometry>
        </mxCell>
        <mxCell id="gAn3sIhADLl_WlFW2sv6-70" value="&lt;font style=&quot;font-size: 13px&quot;&gt;&lt;span style=&quot;font-size: 13px&quot;&gt;&lt;br&gt;&lt;br&gt;&lt;br&gt;&lt;br&gt;&lt;br&gt;&lt;br&gt;&lt;br&gt;sources&lt;/span&gt;&lt;/font&gt;" style="rounded=1;whiteSpace=wrap;html=1;fillColor=#e5f6fbff;strokeColor=#04aadaff;strokeWidth=4;arcSize=6;fontColor=#000000;fontFamily=Montserrat;fontSize=13;fontStyle=1;dashed=1;fontSource=https%3A%2F%2Ffonts.googleapis.com%2Fcss%3Ffamily%3DMontserrat;" parent="1" vertex="1">
          <mxGeometry x="369.99999999999994" y="760" width="188" height="140" as="geometry" />
        </mxCell>
        <mxCell id="gAn3sIhADLl_WlFW2sv6-41" value="" style="endArrow=block;html=1;strokeWidth=5;endFill=1;exitX=1;exitY=0.5;exitDx=0;exitDy=0;entryX=0;entryY=0.5;entryDx=0;entryDy=0;strokeColor=#40535D;fontFamily=Montserrat;fontSource=https%3A%2F%2Ffonts.googleapis.com%2Fcss%3Ffamily%3DMontserrat;" parent="1" source="gAn3sIhADLl_WlFW2sv6-70" target="gAn3sIhADLl_WlFW2sv6-62" edge="1">
          <mxGeometry width="50" height="50" relative="1" as="geometry">
            <mxPoint x="550.0000000000005" y="820" as="sourcePoint" />
            <mxPoint x="1192.254" y="856.75" as="targetPoint" />
          </mxGeometry>
        </mxCell>
        <mxCell id="gAn3sIhADLl_WlFW2sv6-77" value="" style="endArrow=block;html=1;strokeWidth=5;endFill=1;exitX=1;exitY=0.5;exitDx=0;exitDy=0;entryX=0;entryY=0.5;entryDx=0;entryDy=0;strokeColor=#40535D;fontFamily=Montserrat;fontSource=https%3A%2F%2Ffonts.googleapis.com%2Fcss%3Ffamily%3DMontserrat;" parent="1" edge="1">
          <mxGeometry width="50" height="50" relative="1" as="geometry">
            <mxPoint x="799" y="831" as="sourcePoint" />
            <mxPoint x="923" y="831" as="targetPoint" />
          </mxGeometry>
        </mxCell>
        <mxCell id="gAn3sIhADLl_WlFW2sv6-62" value="&lt;font style=&quot;font-size: 13px&quot;&gt;&lt;span style=&quot;font-size: 13px&quot;&gt;kafka&lt;br&gt;destination&lt;br&gt;&lt;/span&gt;&lt;/font&gt;" style="rounded=1;whiteSpace=wrap;html=1;fillColor=#04aadaff;strokeColor=none;strokeWidth=4;arcSize=6;fontFamily=Montserrat;fontSize=13;fontStyle=1;fontColor=#FFFFFF;fontSource=https%3A%2F%2Ffonts.googleapis.com%2Fcss%3Ffamily%3DMontserrat;" parent="1" vertex="1">
          <mxGeometry x="682" y="780" width="117" height="102" as="geometry" />
        </mxCell>
        <mxCell id="gAn3sIhADLl_WlFW2sv6-86" value="" style="edgeStyle=elbowEdgeStyle;elbow=horizontal;endArrow=block;html=1;strokeWidth=5;fontFamily=Montserrat;fontSize=13;fontColor=#FFFFFF;endFill=1;strokeColor=#40535D;fontSource=https%3A%2F%2Ffonts.googleapis.com%2Fcss%3Ffamily%3DMontserrat;" parent="1" edge="1">
          <mxGeometry width="50" height="50" relative="1" as="geometry">
            <mxPoint x="814" y="831" as="sourcePoint" />
            <mxPoint x="923" y="728" as="targetPoint" />
          </mxGeometry>
        </mxCell>
        <mxCell id="gAn3sIhADLl_WlFW2sv6-87" value="" style="edgeStyle=elbowEdgeStyle;elbow=horizontal;endArrow=block;html=1;strokeWidth=5;fontFamily=Montserrat;fontSize=13;fontColor=#FFFFFF;endFill=1;strokeColor=#40535D;fontSource=https%3A%2F%2Ffonts.googleapis.com%2Fcss%3Ffamily%3DMontserrat;" parent="1" edge="1">
          <mxGeometry width="50" height="50" relative="1" as="geometry">
            <mxPoint x="814" y="831" as="sourcePoint" />
            <mxPoint x="923" y="933" as="targetPoint" />
          </mxGeometry>
        </mxCell>
        <mxCell id="gAn3sIhADLl_WlFW2sv6-88" value="" style="shape=image;verticalLabelPosition=bottom;labelBackgroundColor=#ffffff;verticalAlign=top;aspect=fixed;imageAspect=0;image=data:image/png,iVBORw0KGgoAAAANSUhEUgAAAFsAAABbCAYAAAAcNvmZAAAABHNCSVQICAgIfAhkiAAAAAlwSFlzAAAOxAAADsQBlSsOGwAAABl0RVh0U29mdHdhcmUAd3d3Lmlua3NjYXBlLm9yZ5vuPBoAAAhFSURBVHic7Z1tjFRXGcd/z9wz2y4CWgr0BVGRfQGsNhgtVoxIJTUVCALdAbS0xFb41MREExSMUQrlQxPRxA8u/WBaKJS7BVOWlA+2RRNIEGugMVB2Zgu2vIiUWF4WBpx79/HD7OzL7M7uzOx9mbnLL9lk78w55/nvf0/O3HvmnOcIlcbuE/cZNzZdNNag0IjoNJAJCp8U+ATZn7HAVeC6wnWBK6AfoXJSoE2JtTlivUdiyoVw/5i+SNgC2NM+0XJ1DqrzBL4BzPCqaYVTMfQQyMGMG9vPirozXrVdDuGYbR8fF5ea5aq6EvhaQFEVOCzItkym5lV+8NmPA4rbTaBmm5bUo6iuAeYDdwQZO49bwD6g2Uk0/DmooP6brSqW3b5ARNcDs3yPVzrHVHSLe7xhO7+STj8D+Wq21ZJaJKobgQf8jOMN8k9V1rvL6lt9i+BLq7tTnzaubgEe96V9f9nnuO6zrJj+L68b9tbs5nfiZtzYtSjrgFpP2w6WG4hudMaff4G5cx2vGvXO7J3tk42lO0Fne9Zm+BwxdC6/mZh22ovGYl40Yu1KLTRW57GIGQ3wkEPs75adnO9FY8MzW1WM3bZZRF8HxnkhqAK5W6DV2MmNqA5rJCi/sq2Wpe1/ENFnhiOgmhCVlzOXrzzDmq9kyqpfVtQ3UneYDt0BLCmrfnXT6tSOXs7C+2+UWrF0s1vPjzLpjv3AN0uuGx3+6lD7GInJ6VIqlTZm22qZdMd2RrbRAHMMaZsDB0wplYo3W1UsSW0FFpeqLKIsiF+6/4+lfGgWbbZpST4vyg/L0xVNVOUJY6c2FFu+qP+KZSfnC7QWW36EoSqy2G2qf32ogkObt7N9srE6jwJ3e6EsonzsWM5Mls74YLBCgw8jBw6Y7CP4baOH4C7jml00vxMfrNCgZpuPJq2N4CO4X8wy48b8dLAChYcR+/3PGNwTZL9gvU1x3DB0PlBo4qpgzza4v+e20aUyysH6TaE3BzTbakktAhb6JinS6PcKzRL2N1tVRHnOd00RRmDTQA87/cy27OQi0C8GIyuyPGi9lurXu/uZLSLrgtETbUT5Rf5rfcw2LalHga8GpqiHvcC/Q4jrJ7PMruS83i/07dnZBTSBoyK2Q+ZzAmuAc2Fo8AMRVve+7jHbPj6O7EqlcEh84X+ZRMNWh8zno2K6wkL+dPpTuetus+NSs5xwl4RliZbpd8YzmUTuottsVX0yHD0FiIjpCitzv2fN3nHqHuChsAQNSvWbPhs7NQG6zLaM820qfa66ek0XS/gW5Hq2ytww1ZREVZquj0DObMleVBVVZLqoPAIg2T0s5nyYYlTkCbep/pVhNWKfqY2TXq2wFrjPG2Xe4Tjm3phxY9PDFuIJicnpTKLhd5X6cGSMOy0mWI1hC/GUCh1eBG2MKRots3NUmOmKNMZAGsIU4TvdptfWC/yY0Ca8tDEGek84wQMm/DF9YgwYE3DQcAlveBkbA0YHFKyyCN70MSOvZ+cTnOljYlT3ri7v6DH9S8A/fIgwygBpRupQ0hv7eE2c+CqFXwKTfIhwwwDXGMlm9zJZ/TE5xzUDdPgYoHIJzuQcV3M9e+QQvMk5rhmQ/2RTcUScXrOCGs6s4EUDmgQeCyF4MHT35HTQPTkPaTOCtGkUe3Z4w8WACNpmVOUkEiGzK8zkHKqcNI5Y7xl8TSATDOGPyYPixGMnYySmXFB4P2wxZWMfr4nbydWGdErht1Sg0UAbS+ouZneoiryN6tSQBZVGhQ4XA6HwNkDW7E49gPCjUBUVSxWZ3IP0mO3GY28Zp1Op5IU6VWkyAOo6nX+B3LqRJXUXgcMhCipM95gcP6XQTHUZDXCQ7zdegtwwAgiyTdGHw9OUR/X25D6I6rbc791mZzI1r5r4rS2EvWw4IiZ3cTNTU9OSu+hZDJ/NTbovDEVAFIaLfojoXhZPuZy7zt/A1BywHgBEO5sM8dNRMTmHwtbe1/3uPoydPEI4m5iixt+cREOfDMr9tuapyKbg9EQXFTbmv9b/vlpVTEv7u7c3ng6Ld52m+plI3xm+/tupRVSV9YHJiiAq+vN8o6FAooCutMZ7fVcVTfa4TY37B3qjYAoMB+tZ4LpvkqLJDcd1f1LozcKZdBJTP0T09odlKahsGCzv9qBpi5zx518ADnqtKaIcdi5fKZjYBYqZ5ctmeT8KjPdKVQT5r4M1k8TUDwcrNHQSxaX1Z1X1KUbEeoeyUFVZNZTRUGTGSndZ4xvA88OWFUVUNxR7KEXxXxaoitWSfFGQp8sWFjFE5eVMom7VQPfUA1F84lsRdWlYA+wpV1zEaM1MPPt0sUZDOV+D2WdqDen9wJyS60aHAPJnAyQmp53R8h1gd8l1o0FrOUZDuQdMfLf+lkP9MhV5saz6VYoILzkTzi0px2gY7rfpqmLs1AaE9cNuq7JRVDc4iYZflzJG5+OJQWZXch7CdiCKeyovqepTXbe/w8K73ph90txJ9gDNqHDEcd1lXp0z5skJTAAsrT/rTDg3F9F1QMnHilQY11H5mTPh3GwvD3TzZ5y12ybFYbMiK4cuXHFUyal5eXSdlbAJeNDPOB5xTEXXFZr494JA7iC6PkCfI7jzekvhqIpsdh+ve204dxrFEOwZvlnT1wALgDuDjJ3HTYFWFW12mhrfCipoOPfGr3xwVzx+q0mRJ0G/HpCOTuCQqG7L1NS09F6pFBThP4jsaBtvWbGHJaazUeYBX8YjXQqngDcRPeQ6+iYrpoWaeCx8s/PZ0z7RuDpDVBsUaSSbVulekDGgo8lu/R4LXAU6QDpArwEXUDkpokkVSTqWnOhaCl0x/B+8jCz2TUN0ZgAAAABJRU5ErkJggg==;fontFamily=Montserrat;fontSource=https%3A%2F%2Ffonts.googleapis.com%2Fcss%3Ffamily%3DMontserrat;" parent="1" vertex="1">
          <mxGeometry x="428.50000000000006" y="795.5" width="71" height="71" as="geometry" />
        </mxCell>
        <mxCell id="gAn3sIhADLl_WlFW2sv6-107" value="" style="endArrow=none;dashed=1;html=1;dashPattern=1 1;strokeColor=#B3B3B3;strokeWidth=5;fontFamily=Montserrat;fontSize=13;fontColor=#000000;fontSource=https%3A%2F%2Ffonts.googleapis.com%2Fcss%3Ffamily%3DMontserrat;" parent="1" edge="1">
          <mxGeometry width="50" height="50" relative="1" as="geometry">
            <mxPoint x="618.5" y="845" as="sourcePoint" />
            <mxPoint x="618.5" y="875" as="targetPoint" />
          </mxGeometry>
        </mxCell>
        <mxCell id="gAn3sIhADLl_WlFW2sv6-108" value="" style="endArrow=none;dashed=1;html=1;dashPattern=1 1;strokeColor=#B3B3B3;strokeWidth=5;fontFamily=Montserrat;fontSize=13;fontColor=#000000;fontSource=https%3A%2F%2Ffonts.googleapis.com%2Fcss%3Ffamily%3DMontserrat;" parent="1" edge="1">
          <mxGeometry width="50" height="50" relative="1" as="geometry">
            <mxPoint x="981.4999999999998" y="970" as="sourcePoint" />
            <mxPoint x="981.4999999999998" y="1000" as="targetPoint" />
          </mxGeometry>
        </mxCell>
        <mxCell id="gAn3sIhADLl_WlFW2sv6-109" value="" style="endArrow=none;dashed=1;html=1;dashPattern=1 1;strokeColor=#B3B3B3;strokeWidth=5;fontFamily=Montserrat;fontSize=13;fontColor=#000000;fontSource=https%3A%2F%2Ffonts.googleapis.com%2Fcss%3Ffamily%3DMontserrat;" parent="1" edge="1">
          <mxGeometry width="50" height="50" relative="1" as="geometry">
            <mxPoint x="1340" y="1090" as="sourcePoint" />
            <mxPoint x="1340" y="1120" as="targetPoint" />
          </mxGeometry>
        </mxCell>
        <mxCell id="gAn3sIhADLl_WlFW2sv6-115" value="" style="endArrow=none;html=1;strokeWidth=5;endFill=0;exitX=1;exitY=0.5;exitDx=0;exitDy=0;entryX=0;entryY=0.75;entryDx=0;entryDy=0;strokeColor=#40535D;fontFamily=Montserrat;fontSource=https%3A%2F%2Ffonts.googleapis.com%2Fcss%3Ffamily%3DMontserrat;" parent="1" target="gAn3sIhADLl_WlFW2sv6-69" edge="1">
          <mxGeometry width="50" height="50" relative="1" as="geometry">
            <mxPoint x="1040" y="817.5" as="sourcePoint" />
            <mxPoint x="1280" y="750" as="targetPoint" />
          </mxGeometry>
        </mxCell>
        <mxCell id="gAn3sIhADLl_WlFW2sv6-116" value="" style="endArrow=none;html=1;strokeWidth=5;endFill=0;exitX=1;exitY=0.5;exitDx=0;exitDy=0;strokeColor=#40535D;fontFamily=Montserrat;fontSource=https%3A%2F%2Ffonts.googleapis.com%2Fcss%3Ffamily%3DMontserrat;" parent="1" edge="1">
          <mxGeometry width="50" height="50" relative="1" as="geometry">
            <mxPoint x="1040" y="932.5" as="sourcePoint" />
            <mxPoint x="1280" y="650" as="targetPoint" />
          </mxGeometry>
        </mxCell>
        <mxCell id="gAn3sIhADLl_WlFW2sv6-117" value="" style="endArrow=none;html=1;strokeWidth=5;endFill=0;exitX=1;exitY=0.5;exitDx=0;exitDy=0;entryX=0;entryY=0.667;entryDx=0;entryDy=0;entryPerimeter=0;strokeColor=#40535D;fontFamily=Montserrat;fontSource=https%3A%2F%2Ffonts.googleapis.com%2Fcss%3Ffamily%3DMontserrat;" parent="1" target="gAn3sIhADLl_WlFW2sv6-66" edge="1">
          <mxGeometry width="50" height="50" relative="1" as="geometry">
            <mxPoint x="1040" y="820" as="sourcePoint" />
            <mxPoint x="1280" y="819.9799999999999" as="targetPoint" />
          </mxGeometry>
        </mxCell>
        <mxCell id="gAn3sIhADLl_WlFW2sv6-118" value="" style="endArrow=none;html=1;strokeWidth=5;endFill=0;exitX=0.997;exitY=0.308;exitDx=0;exitDy=0;exitPerimeter=0;strokeColor=#40535D;fontFamily=Montserrat;fontSource=https%3A%2F%2Ffonts.googleapis.com%2Fcss%3Ffamily%3DMontserrat;" parent="1" source="gAn3sIhADLl_WlFW2sv6-96" edge="1">
          <mxGeometry width="50" height="50" relative="1" as="geometry">
            <mxPoint x="1040" y="830" as="sourcePoint" />
            <mxPoint x="1277" y="803" as="targetPoint" />
          </mxGeometry>
        </mxCell>
        <mxCell id="gAn3sIhADLl_WlFW2sv6-119" value="" style="endArrow=none;html=1;strokeWidth=5;endFill=0;entryX=0;entryY=0.5;entryDx=0;entryDy=0;strokeColor=#40535D;fontFamily=Montserrat;fontSource=https%3A%2F%2Ffonts.googleapis.com%2Fcss%3Ffamily%3DMontserrat;" parent="1" target="gAn3sIhADLl_WlFW2sv6-101" edge="1">
          <mxGeometry width="50" height="50" relative="1" as="geometry">
            <mxPoint x="1040" y="851" as="sourcePoint" />
            <mxPoint x="1280" y="839.9799999999999" as="targetPoint" />
          </mxGeometry>
        </mxCell>
        <mxCell id="gAn3sIhADLl_WlFW2sv6-120" value="" style="endArrow=none;html=1;strokeWidth=5;endFill=0;exitX=0.997;exitY=0.853;exitDx=0;exitDy=0;exitPerimeter=0;strokeColor=#40535D;fontFamily=Montserrat;fontSource=https%3A%2F%2Ffonts.googleapis.com%2Fcss%3Ffamily%3DMontserrat;" parent="1" source="gAn3sIhADLl_WlFW2sv6-96" edge="1">
          <mxGeometry width="50" height="50" relative="1" as="geometry">
            <mxPoint x="1040" y="850" as="sourcePoint" />
            <mxPoint x="1280" y="970" as="targetPoint" />
          </mxGeometry>
        </mxCell>
        <mxCell id="gAn3sIhADLl_WlFW2sv6-121" value="" style="endArrow=none;html=1;strokeWidth=5;endFill=0;exitX=1;exitY=0.5;exitDx=0;exitDy=0;strokeColor=#40535D;fontFamily=Montserrat;fontSource=https%3A%2F%2Ffonts.googleapis.com%2Fcss%3Ffamily%3DMontserrat;" parent="1" edge="1">
          <mxGeometry width="50" height="50" relative="1" as="geometry">
            <mxPoint x="1040" y="855.5" as="sourcePoint" />
            <mxPoint x="1280" y="1050" as="targetPoint" />
          </mxGeometry>
        </mxCell>
        <mxCell id="gAn3sIhADLl_WlFW2sv6-122" value="" style="endArrow=none;html=1;strokeWidth=5;endFill=0;exitX=1;exitY=0.5;exitDx=0;exitDy=0;strokeColor=#40535D;fontFamily=Montserrat;fontSource=https%3A%2F%2Ffonts.googleapis.com%2Fcss%3Ffamily%3DMontserrat;" parent="1" edge="1">
          <mxGeometry width="50" height="50" relative="1" as="geometry">
            <mxPoint x="1040" y="932.5" as="sourcePoint" />
            <mxPoint x="1280" y="730" as="targetPoint" />
          </mxGeometry>
        </mxCell>
        <mxCell id="gAn3sIhADLl_WlFW2sv6-123" value="" style="endArrow=none;html=1;strokeWidth=5;endFill=0;exitX=1;exitY=0.5;exitDx=0;exitDy=0;entryX=0.008;entryY=0.467;entryDx=0;entryDy=0;entryPerimeter=0;strokeColor=#40535D;fontFamily=Montserrat;fontSource=https%3A%2F%2Ffonts.googleapis.com%2Fcss%3Ffamily%3DMontserrat;" parent="1" target="gAn3sIhADLl_WlFW2sv6-102" edge="1">
          <mxGeometry width="50" height="50" relative="1" as="geometry">
            <mxPoint x="1040" y="932.5" as="sourcePoint" />
            <mxPoint x="1280" y="800" as="targetPoint" />
          </mxGeometry>
        </mxCell>
        <mxCell id="gAn3sIhADLl_WlFW2sv6-124" value="" style="endArrow=none;html=1;strokeWidth=5;endFill=0;exitX=0.991;exitY=0.624;exitDx=0;exitDy=0;entryX=0;entryY=0.5;entryDx=0;entryDy=0;exitPerimeter=0;strokeColor=#40535D;fontFamily=Montserrat;fontSource=https%3A%2F%2Ffonts.googleapis.com%2Fcss%3Ffamily%3DMontserrat;" parent="1" source="gAn3sIhADLl_WlFW2sv6-65" target="gAn3sIhADLl_WlFW2sv6-101" edge="1">
          <mxGeometry width="50" height="50" relative="1" as="geometry">
            <mxPoint x="1040" y="932.5" as="sourcePoint" />
            <mxPoint x="1280" y="932.4799999999998" as="targetPoint" />
          </mxGeometry>
        </mxCell>
        <mxCell id="gAn3sIhADLl_WlFW2sv6-125" value="" style="endArrow=none;html=1;strokeWidth=5;endFill=0;exitX=1;exitY=0.5;exitDx=0;exitDy=0;entryX=0;entryY=0.5;entryDx=0;entryDy=0;strokeColor=#40535D;fontFamily=Montserrat;fontSource=https%3A%2F%2Ffonts.googleapis.com%2Fcss%3Ffamily%3DMontserrat;" parent="1" target="gAn3sIhADLl_WlFW2sv6-104" edge="1">
          <mxGeometry width="50" height="50" relative="1" as="geometry">
            <mxPoint x="1040" y="940" as="sourcePoint" />
            <mxPoint x="1280" y="939.9799999999998" as="targetPoint" />
          </mxGeometry>
        </mxCell>
        <mxCell id="gAn3sIhADLl_WlFW2sv6-126" value="" style="endArrow=none;html=1;strokeWidth=5;endFill=0;exitX=1;exitY=0.5;exitDx=0;exitDy=0;entryX=0;entryY=0.5;entryDx=0;entryDy=0;strokeColor=#40535D;fontFamily=Montserrat;fontSource=https%3A%2F%2Ffonts.googleapis.com%2Fcss%3Ffamily%3DMontserrat;" parent="1" target="gAn3sIhADLl_WlFW2sv6-103" edge="1">
          <mxGeometry width="50" height="50" relative="1" as="geometry">
            <mxPoint x="1040" y="940" as="sourcePoint" />
            <mxPoint x="1280" y="939.9799999999998" as="targetPoint" />
          </mxGeometry>
        </mxCell>
        <mxCell id="gAn3sIhADLl_WlFW2sv6-63" value="&lt;font style=&quot;font-size: 13px&quot;&gt;&lt;span style=&quot;font-size: 13px&quot;&gt;worker&lt;/span&gt;&lt;/font&gt;" style="rounded=1;whiteSpace=wrap;html=1;fillColor=#04aadaff;strokeColor=none;strokeWidth=4;arcSize=6;fontFamily=Montserrat;fontSize=13;fontStyle=1;fontColor=#FFFFFF;fontSource=https%3A%2F%2Ffonts.googleapis.com%2Fcss%3Ffamily%3DMontserrat;" parent="1" vertex="1">
          <mxGeometry x="923" y="697" width="117" height="60" as="geometry" />
        </mxCell>
        <mxCell id="gAn3sIhADLl_WlFW2sv6-65" value="&lt;font style=&quot;font-size: 13px&quot;&gt;&lt;span style=&quot;font-size: 13px&quot;&gt;worker&lt;/span&gt;&lt;/font&gt;" style="rounded=1;whiteSpace=wrap;html=1;fillColor=#04aadaff;strokeColor=none;strokeWidth=4;arcSize=6;fontFamily=Montserrat;fontSize=13;fontStyle=1;fontColor=#FFFFFF;fontSource=https%3A%2F%2Ffonts.googleapis.com%2Fcss%3Ffamily%3DMontserrat;" parent="1" vertex="1">
          <mxGeometry x="922.9999999999997" y="903" width="117" height="60" as="geometry" />
        </mxCell>
        <mxCell id="gAn3sIhADLl_WlFW2sv6-96" value="&lt;font style=&quot;font-size: 13px&quot;&gt;&lt;span style=&quot;font-size: 13px&quot;&gt;worker&lt;/span&gt;&lt;/font&gt;" style="rounded=1;whiteSpace=wrap;html=1;fillColor=#04aadaff;strokeColor=none;strokeWidth=4;arcSize=6;fontFamily=Montserrat;fontSize=13;fontStyle=1;fontColor=#FFFFFF;fontSource=https%3A%2F%2Ffonts.googleapis.com%2Fcss%3Ffamily%3DMontserrat;" parent="1" vertex="1">
          <mxGeometry x="922.9999999999998" y="802.5" width="117" height="60" as="geometry" />
        </mxCell>
        <mxCell id="gAn3sIhADLl_WlFW2sv6-66" value="" style="rounded=1;whiteSpace=wrap;html=1;fillColor=#AAAAAA;strokeColor=none;strokeWidth=4;arcSize=25;fontColor=#FFFFFF;fontFamily=Montserrat;fontSize=13;fontStyle=1;fontSource=https%3A%2F%2Ffonts.googleapis.com%2Fcss%3Ffamily%3DMontserrat;" parent="1" vertex="1">
          <mxGeometry x="1280" y="690" width="120" height="60" as="geometry" />
        </mxCell>
        <mxCell id="gAn3sIhADLl_WlFW2sv6-69" value="" style="rounded=1;whiteSpace=wrap;html=1;fillColor=#AAAAAA;strokeColor=none;strokeWidth=4;arcSize=25;fontColor=#FFFFFF;fontFamily=Montserrat;fontSize=13;fontStyle=1;fontSource=https%3A%2F%2Ffonts.googleapis.com%2Fcss%3Ffamily%3DMontserrat;" parent="1" vertex="1">
          <mxGeometry x="1280" y="607" width="120" height="60" as="geometry" />
        </mxCell>
        <mxCell id="gAn3sIhADLl_WlFW2sv6-101" value="" style="rounded=1;whiteSpace=wrap;html=1;fillColor=#AAAAAA;strokeColor=none;strokeWidth=4;arcSize=25;fontColor=#FFFFFF;fontFamily=Montserrat;fontSize=13;fontStyle=1;fontSource=https%3A%2F%2Ffonts.googleapis.com%2Fcss%3Ffamily%3DMontserrat;" parent="1" vertex="1">
          <mxGeometry x="1280" y="856" width="120" height="60" as="geometry" />
        </mxCell>
        <mxCell id="gAn3sIhADLl_WlFW2sv6-102" value="" style="rounded=1;whiteSpace=wrap;html=1;fillColor=#AAAAAA;strokeColor=none;strokeWidth=4;arcSize=25;fontColor=#FFFFFF;fontFamily=Montserrat;fontSize=13;fontStyle=1;fontSource=https%3A%2F%2Ffonts.googleapis.com%2Fcss%3Ffamily%3DMontserrat;" parent="1" vertex="1">
          <mxGeometry x="1280" y="773" width="120" height="60" as="geometry" />
        </mxCell>
        <mxCell id="gAn3sIhADLl_WlFW2sv6-103" value="" style="rounded=1;whiteSpace=wrap;html=1;fillColor=#AAAAAA;strokeColor=none;strokeWidth=4;arcSize=25;fontColor=#FFFFFF;fontFamily=Montserrat;fontSize=13;fontStyle=1;fontSource=https%3A%2F%2Ffonts.googleapis.com%2Fcss%3Ffamily%3DMontserrat;" parent="1" vertex="1">
          <mxGeometry x="1280" y="1023" width="120" height="60" as="geometry" />
        </mxCell>
        <mxCell id="gAn3sIhADLl_WlFW2sv6-104" value="" style="rounded=1;whiteSpace=wrap;html=1;fillColor=#AAAAAA;strokeColor=none;strokeWidth=4;arcSize=25;fontColor=#FFFFFF;fontFamily=Montserrat;fontSize=13;fontStyle=1;fontSource=https%3A%2F%2Ffonts.googleapis.com%2Fcss%3Ffamily%3DMontserrat;" parent="1" vertex="1">
          <mxGeometry x="1280" y="940" width="120" height="60" as="geometry" />
        </mxCell>
        <mxCell id="gAn3sIhADLl_WlFW2sv6-128" value="&lt;h1 style=&quot;font-family: &amp;#34;verdana&amp;#34; ; white-space: normal&quot;&gt;&lt;font style=&quot;font-size: 19px&quot;&gt;delivery report&lt;/font&gt;&lt;/h1&gt;" style="shape=callout;whiteSpace=wrap;html=1;perimeter=calloutPerimeter;rounded=1;strokeColor=none;strokeWidth=8;fillColor=none;position2=0.52;align=center;fontColor=#737373;arcSize=0;fontFamily=Montserrat;fontSource=https%3A%2F%2Ffonts.googleapis.com%2Fcss%3Ffamily%3DMontserrat;" parent="1" vertex="1">
          <mxGeometry x="996" y="540" width="330" height="20" as="geometry" />
        </mxCell>
        <mxCell id="gAn3sIhADLl_WlFW2sv6-129" value="&lt;h1 style=&quot;font-family: &amp;#34;verdana&amp;#34; ; white-space: normal&quot;&gt;&lt;font style=&quot;font-size: 19px&quot;&gt;hashing by key() option&lt;/font&gt;&lt;/h1&gt;" style="shape=callout;whiteSpace=wrap;html=1;perimeter=calloutPerimeter;rounded=1;strokeColor=none;strokeWidth=8;fillColor=none;position2=0.52;align=left;fontColor=#737373;arcSize=0;fontFamily=Montserrat;fontSource=https%3A%2F%2Ffonts.googleapis.com%2Fcss%3Ffamily%3DMontserrat;" parent="1" vertex="1">
          <mxGeometry x="700" y="540" width="330" height="20" as="geometry" />
        </mxCell>
        <mxCell id="gAn3sIhADLl_WlFW2sv6-130" value="&lt;h1 style=&quot;font-family: &amp;#34;verdana&amp;#34; ; white-space: normal&quot;&gt;&lt;font style=&quot;font-size: 19px&quot;&gt;librdkafka&lt;/font&gt;&lt;/h1&gt;" style="shape=callout;whiteSpace=wrap;html=1;perimeter=calloutPerimeter;rounded=1;strokeColor=none;strokeWidth=8;fillColor=none;position2=0.52;align=center;fontColor=#737373;arcSize=0;fontFamily=Montserrat;fontSource=https%3A%2F%2Ffonts.googleapis.com%2Fcss%3Ffamily%3DMontserrat;" parent="1" vertex="1">
          <mxGeometry x="1368" y="540" width="330" height="20" as="geometry" />
        </mxCell>
        <mxCell id="gAn3sIhADLl_WlFW2sv6-139" value="&lt;h1 style=&quot;font-family: &amp;#34;verdana&amp;#34; ; white-space: normal&quot;&gt;&lt;font style=&quot;font-size: 19px&quot;&gt;/partition&lt;/font&gt;&lt;/h1&gt;" style="shape=callout;whiteSpace=wrap;html=1;perimeter=calloutPerimeter;rounded=1;strokeColor=none;strokeWidth=8;fillColor=none;position2=0.52;align=center;fontColor=#737373;arcSize=0;fontFamily=Montserrat;fontSource=https%3A%2F%2Ffonts.googleapis.com%2Fcss%3Ffamily%3DMontserrat;" parent="1" vertex="1">
          <mxGeometry x="1368" y="1053" width="330" height="20" as="geometry" />
        </mxCell>
        <mxCell id="gAn3sIhADLl_WlFW2sv6-140" value="" style="endArrow=block;html=1;strokeWidth=5;endFill=1;exitX=1;exitY=0.5;exitDx=0;exitDy=0;entryX=0;entryY=0.5;entryDx=0;entryDy=0;strokeColor=#40535D;fontFamily=Montserrat;fontSource=https%3A%2F%2Ffonts.googleapis.com%2Fcss%3Ffamily%3DMontserrat;" parent="1" edge="1">
          <mxGeometry width="50" height="50" relative="1" as="geometry">
            <mxPoint x="1223" y="584" as="sourcePoint" />
            <mxPoint x="1099" y="583" as="targetPoint" />
          </mxGeometry>
        </mxCell>
        <mxCell id="gAn3sIhADLl_WlFW2sv6-141" value="&lt;h1 style=&quot;font-family: &amp;#34;verdana&amp;#34; ; white-space: normal&quot;&gt;&lt;font style=&quot;font-size: 19px&quot;&gt;round robin mode&lt;/font&gt;&lt;/h1&gt;" style="shape=callout;whiteSpace=wrap;html=1;perimeter=calloutPerimeter;rounded=1;strokeColor=none;strokeWidth=8;fillColor=none;position2=0.52;align=left;fontColor=#737373;arcSize=0;fontFamily=Montserrat;fontSource=https%3A%2F%2Ffonts.googleapis.com%2Fcss%3Ffamily%3DMontserrat;" parent="1" vertex="1">
          <mxGeometry x="700" y="1053" width="330" height="20" as="geometry" />
        </mxCell>
        <mxCell id="gAn3sIhADLl_WlFW2sv6-142" value="&lt;h1&gt;&lt;font color=&quot;#04aada&quot; style=&quot;font-size: 26px&quot;&gt;AxoSyslog&lt;/font&gt;&lt;/h1&gt;" style="text;html=1;strokeColor=none;fillColor=none;align=center;verticalAlign=middle;whiteSpace=wrap;rounded=0;dashed=1;fontFamily=Montserrat;fontSource=https%3A%2F%2Ffonts.googleapis.com%2Fcss%3Ffamily%3DMontserrat;" parent="1" vertex="1">
          <mxGeometry x="856.4999999999994" y="1142" width="250" height="20" as="geometry" />
        </mxCell>
        <mxCell id="gAn3sIhADLl_WlFW2sv6-143" value="&lt;h1&gt;&lt;font color=&quot;#04aada&quot; style=&quot;font-size: 26px&quot;&gt;Kafka client&lt;/font&gt;&lt;/h1&gt;" style="text;html=1;strokeColor=none;fillColor=none;align=center;verticalAlign=middle;whiteSpace=wrap;rounded=0;dashed=1;fontFamily=Montserrat;fontSource=https%3A%2F%2Ffonts.googleapis.com%2Fcss%3Ffamily%3DMontserrat;" parent="1" vertex="1">
          <mxGeometry x="1214.9999999999998" y="1142" width="250" height="20" as="geometry" />
        </mxCell>
        <mxCell id="gAn3sIhADLl_WlFW2sv6-137" value="" style="rounded=0;whiteSpace=wrap;html=1;strokeWidth=4;fontFamily=Montserrat;fontSize=13;strokeColor=none;fontSource=https%3A%2F%2Ffonts.googleapis.com%2Fcss%3Ffamily%3DMontserrat;" parent="1" vertex="1">
          <mxGeometry x="1465" y="800" width="120" height="60" as="geometry" />
        </mxCell>
        <mxCell id="gAn3sIhADLl_WlFW2sv6-138" value="&lt;h1 style=&quot;font-family: &amp;#34;verdana&amp;#34; ; white-space: normal&quot;&gt;&lt;font style=&quot;font-size: 19px&quot;&gt;rdkafka&amp;nbsp;&lt;/font&gt;&lt;/h1&gt;&lt;h1 style=&quot;font-family: &amp;#34;verdana&amp;#34; ; white-space: normal&quot;&gt;&lt;font style=&quot;font-size: 19px&quot;&gt;client&lt;/font&gt;&lt;/h1&gt;&lt;h1 style=&quot;font-family: &amp;#34;verdana&amp;#34; ; white-space: normal&quot;&gt;&lt;font style=&quot;font-size: 19px&quot;&gt;threads&lt;/font&gt;&lt;/h1&gt;" style="shape=callout;whiteSpace=wrap;html=1;perimeter=calloutPerimeter;rounded=1;strokeColor=none;strokeWidth=8;fillColor=none;position2=0.52;align=left;fontColor=#737373;arcSize=0;fontFamily=Montserrat;fontSource=https%3A%2F%2Ffonts.googleapis.com%2Fcss%3Ffamily%3DMontserrat;" parent="1" vertex="1">
          <mxGeometry x="1478" y="841" width="330" height="20" as="geometry" />
        </mxCell>
      </root>
    </mxGraphModel>
  </diagram>
</mxfile>
